<svg xmlns="http://www.w3.org/2000/svg" xmlns:xlink="http://www.w3.org/1999/xlink" width="500" zoomAndPan="magnify" viewBox="0 0 375 54.75" height="73" preserveAspectRatio="xMidYMid meet" version="1.0"><defs><clipPath id="ee47a7d051"><path d="M 198 3 L 230 3 L 230 54.5 L 198 54.5 Z M 198 3 " clip-rule="nonzero"/></clipPath><clipPath id="48f9b24356"><path d="M 339 3 L 363.847656 3 L 363.847656 44 L 339 44 Z M 339 3 " clip-rule="nonzero"/></clipPath><clipPath id="bb9b95a973"><path d="M 11.457031 3 L 36 3 L 36 45 L 11.457031 45 Z M 11.457031 3 " clip-rule="nonzero"/></clipPath></defs><g clip-path="url(#ee47a7d051)"><path fill="#000000" d="M 226.058594 23.039062 C 223.117188 21.269531 220.988281 18.839844 219.691406 15.730469 C 218.972656 14 218.488281 12.191406 217.839844 10.421875 C 217.492188 9.496094 217.078125 8.582031 216.609375 7.726562 C 216.457031 7.449219 216.015625 7.160156 215.710938 7.160156 C 213.929688 7.105469 212.132812 7.132812 210.144531 7.132812 C 212.214844 11.871094 214.261719 16.542969 216.320312 21.257812 C 215.574219 21.53125 214.953125 21.824219 214.289062 22.003906 C 211.222656 22.886719 208.941406 24.792969 207.546875 27.585938 C 205.199219 32.269531 204.785156 37.21875 206.316406 42.222656 C 207.410156 45.8125 210.019531 48.011719 213.472656 49.503906 C 218.089844 51.507812 225.285156 48.203125 226.378906 42.304688 C 226.765625 40.230469 226.460938 38.28125 225.382812 36.484375 C 223.960938 34.121094 220.835938 33.003906 218.238281 33.886719 C 215.53125 34.800781 213.804688 37.382812 214.054688 40.121094 C 214.261719 42.457031 216.472656 44.003906 218.75 43.382812 C 219.816406 43.089844 220.503906 42.304688 220.535156 41.363281 C 220.5625 40.425781 219.925781 39.566406 218.929688 39.195312 C 218.835938 39.152344 218.738281 39.125 218.417969 39.015625 C 219.441406 38.695312 220.257812 38.722656 221.042969 39.070312 C 224 40.398438 224.277344 43.617188 222.355469 45.898438 C 220.65625 47.902344 218.40625 48.246094 215.960938 47.707031 C 212.257812 46.90625 210.144531 44.363281 209.703125 40.5625 C 209.109375 35.53125 212.4375 32.367188 215.339844 31.054688 C 220.160156 28.871094 226.902344 31.191406 229.125 37.550781 C 230.976562 42.828125 229.167969 48.328125 224.554688 51.464844 C 220.519531 54.214844 216.070312 55.003906 211.316406 53.914062 C 203.707031 52.15625 198.925781 45.898438 198.179688 38.890625 C 197.710938 34.480469 198.222656 30.238281 200.402344 26.316406 C 202.1875 23.121094 204.726562 20.703125 208.058594 18.949219 C 205.972656 13.945312 203.898438 8.972656 201.769531 3.871094 L 226.171875 3.871094 C 223.101562 10.226562 223.65625 16.558594 226.085938 23.027344 Z M 226.058594 23.039062 " fill-opacity="1" fill-rule="nonzero"/></g><g clip-path="url(#48f9b24356)"><path fill="#000000" d="M 363.140625 43.976562 L 351.964844 43.976562 C 352.972656 43.230469 353.828125 42.621094 354.644531 41.957031 C 354.867188 41.777344 355.074219 41.417969 355.074219 41.128906 C 355.101562 35.464844 355.085938 29.8125 355.085938 24.144531 C 355.085938 23.980469 355.058594 23.828125 355.03125 23.59375 C 352.15625 23.910156 349.851562 22.265625 347.265625 21.367188 C 347.238281 21.671875 347.210938 21.878906 347.210938 22.070312 C 347.210938 28.359375 347.210938 34.660156 347.210938 40.949219 C 347.210938 41.445312 347.363281 41.765625 347.765625 42.042969 C 348.578125 42.609375 349.351562 43.214844 350.304688 43.933594 L 339.03125 43.933594 C 339.929688 43.257812 340.675781 42.664062 341.464844 42.125 C 341.933594 41.804688 342.113281 41.445312 342.101562 40.867188 C 342.070312 33.914062 342.070312 26.964844 342.070312 20.011719 C 342.070312 15.617188 342.070312 11.222656 342.101562 6.816406 C 342.101562 6.261719 341.949219 5.917969 341.492188 5.613281 C 340.703125 5.074219 339.945312 4.464844 339.019531 3.773438 L 350.265625 3.773438 C 349.367188 4.453125 348.632812 5.058594 347.847656 5.585938 C 347.378906 5.902344 347.199219 6.277344 347.210938 6.84375 C 347.238281 9.8125 347.238281 12.769531 347.210938 15.742188 C 347.210938 16.335938 347.351562 16.503906 347.972656 16.65625 C 349.589844 17.054688 351.164062 17.609375 352.75 18.148438 C 353.496094 18.394531 354.214844 18.753906 355.074219 19.101562 C 355.085938 18.726562 355.113281 18.464844 355.113281 18.214844 C 355.113281 14.402344 355.113281 10.585938 355.128906 6.773438 C 355.128906 6.25 354.960938 5.917969 354.546875 5.625 C 353.746094 5.074219 352.988281 4.480469 352.0625 3.789062 L 363.347656 3.789062 C 362.464844 4.4375 361.691406 5.03125 360.890625 5.585938 C 360.417969 5.902344 360.226562 6.25 360.226562 6.828125 C 360.238281 18.175781 360.238281 29.519531 360.226562 40.867188 C 360.226562 41.40625 360.363281 41.765625 360.835938 42.070312 C 361.664062 42.609375 362.4375 43.230469 363.238281 43.808594 C 363.222656 43.851562 363.195312 43.90625 363.183594 43.949219 Z M 363.140625 43.976562 " fill-opacity="1" fill-rule="nonzero"/></g><path fill="#000000" d="M 297.75 16.351562 C 299.976562 12.714844 302.214844 9.082031 304.480469 5.378906 C 303.828125 4.878906 303.207031 4.398438 302.433594 3.800781 L 313.679688 3.800781 C 313.320312 4.078125 313.128906 4.230469 312.933594 4.367188 C 311.980469 5.074219 311 5.765625 310.0625 6.484375 C 309.796875 6.691406 309.550781 6.9375 309.382812 7.230469 C 307.035156 11.03125 304.714844 14.859375 302.378906 18.660156 C 302.171875 18.988281 302.074219 19.253906 302.296875 19.652344 C 304.367188 23.523438 306.414062 27.421875 308.472656 31.304688 C 310.144531 34.453125 311.800781 37.617188 313.515625 40.757812 C 313.777344 41.238281 314.246094 41.640625 314.6875 42 C 315.476562 42.636719 316.320312 43.203125 317.300781 43.933594 L 306 43.933594 C 306.632812 43.4375 307.144531 42.996094 307.726562 42.636719 C 308.277344 42.289062 308.332031 41.984375 308.015625 41.40625 C 305.058594 35.851562 302.128906 30.292969 299.1875 24.726562 C 299.144531 24.640625 299.089844 24.558594 298.953125 24.351562 C 298.425781 25.386719 297.570312 26.105469 297.585938 27.351562 C 297.625 31.871094 297.613281 36.390625 297.585938 40.90625 C 297.585938 41.472656 297.765625 41.804688 298.207031 42.097656 C 298.992188 42.648438 299.753906 43.242188 300.695312 43.933594 L 289.433594 43.933594 C 290 43.492188 290.429688 43.078125 290.925781 42.816406 C 292.210938 42.136719 292.570312 41.15625 292.542969 39.691406 C 292.445312 35.226562 292.570312 30.75 292.570312 26.273438 C 292.570312 19.707031 292.527344 13.160156 292.488281 6.59375 C 292.488281 6.304688 292.25 5.929688 292.003906 5.722656 C 291.230469 5.074219 290.386719 4.507812 289.417969 3.773438 L 300.679688 3.773438 C 299.890625 4.367188 299.296875 4.90625 298.605469 5.308594 C 297.820312 5.765625 297.570312 6.359375 297.597656 7.257812 C 297.667969 10.019531 297.625 12.800781 297.625 15.5625 C 297.625 15.796875 297.625 16.03125 297.625 16.269531 C 297.679688 16.28125 297.75 16.296875 297.804688 16.324219 Z M 297.75 16.351562 " fill-opacity="1" fill-rule="nonzero"/><path fill="#000000" d="M 257.132812 19.652344 C 259.050781 20.664062 260.667969 21.90625 261.855469 23.605469 C 264.730469 27.710938 265.269531 32.117188 263.113281 36.636719 C 260.917969 41.265625 257.089844 43.753906 251.964844 43.976562 C 248.332031 44.128906 244.683594 44.015625 241.035156 44.015625 C 240.96875 44.015625 240.910156 43.988281 240.675781 43.921875 C 241.507812 43.296875 242.222656 42.703125 242.984375 42.191406 C 243.507812 41.847656 243.703125 41.445312 243.6875 40.8125 C 243.675781 29.535156 243.675781 18.257812 243.6875 6.980469 C 243.6875 6.371094 243.566406 5.945312 243.011719 5.585938 C 242.238281 5.074219 241.519531 4.480469 240.773438 3.914062 C 240.789062 3.859375 240.816406 3.789062 240.828125 3.734375 C 241.078125 3.734375 241.339844 3.734375 241.589844 3.734375 C 244.546875 3.761719 247.515625 3.859375 250.472656 3.773438 C 253.054688 3.707031 255.253906 4.492188 257.105469 6.234375 C 260.835938 9.746094 260.988281 15.464844 257.492188 19.199219 C 257.378906 19.320312 257.269531 19.445312 257.105469 19.640625 Z M 248.898438 41.238281 C 251.273438 41.652344 253.332031 41.117188 255.171875 39.734375 C 257.671875 37.855469 258.871094 35.253906 259.203125 32.1875 C 259.675781 27.75 257.269531 23.371094 253.359375 21.617188 C 251.921875 20.964844 250.445312 20.84375 248.910156 21.203125 L 248.910156 41.238281 Z M 248.855469 18.671875 C 250.996094 18.660156 252.695312 18.023438 253.84375 16.253906 C 255.320312 13.972656 255.265625 10.519531 253.679688 8.320312 C 252.683594 6.953125 251.371094 6.207031 249.617188 6.371094 C 249.050781 6.429688 248.828125 6.636719 248.84375 7.230469 C 248.871094 9.539062 248.855469 11.84375 248.855469 14.152344 Z M 248.855469 18.671875 " fill-opacity="1" fill-rule="nonzero"/><path fill="#000000" d="M 286.296875 23.839844 C 286.296875 27.390625 286.324219 30.929688 286.296875 34.480469 C 286.253906 39.386719 282.773438 43.367188 278.078125 43.921875 C 272.523438 44.570312 267.851562 40.699219 267.4375 35.105469 C 267.410156 34.8125 267.398438 34.523438 267.398438 34.234375 C 267.398438 27.335938 267.382812 20.425781 267.398438 13.53125 C 267.398438 9.039062 270.007812 5.40625 274.027344 4.175781 C 280.175781 2.28125 286.226562 6.773438 286.285156 13.28125 C 286.3125 16.804688 286.285156 20.332031 286.285156 23.855469 Z M 281.15625 23.894531 C 281.15625 21.105469 281.15625 18.300781 281.15625 15.507812 C 281.15625 13.847656 281.183594 12.203125 281.15625 10.546875 C 281.117188 8.847656 280.316406 7.5625 278.796875 6.800781 C 277.289062 6.042969 275.769531 6.152344 274.375 7.148438 C 273.0625 8.074219 272.5625 9.414062 272.5625 11.003906 C 272.578125 19.585938 272.5625 28.167969 272.5625 36.734375 C 272.5625 36.996094 272.59375 37.273438 272.605469 37.535156 C 272.757812 39.347656 274.097656 40.878906 275.878906 41.28125 C 278.65625 41.902344 281.128906 39.886719 281.144531 36.957031 C 281.171875 32.601562 281.144531 28.25 281.144531 23.910156 Z M 281.15625 23.894531 " fill-opacity="1" fill-rule="nonzero"/><path fill="#000000" d="M 185.871094 44.03125 L 174.386719 44.03125 C 175.132812 43.464844 175.671875 42.96875 176.292969 42.621094 C 177.304688 42.070312 177.605469 41.324219 177.59375 40.160156 C 177.523438 33.210938 177.566406 26.257812 177.550781 19.308594 C 177.550781 14.914062 174.609375 10.890625 170.449219 9.511719 C 170.230469 9.441406 169.980469 9.386719 169.636719 9.289062 L 169.636719 10.269531 C 169.636719 20.453125 169.636719 30.625 169.621094 40.8125 C 169.621094 41.460938 169.800781 41.875 170.355469 42.234375 C 171.128906 42.746094 171.847656 43.339844 172.730469 44.015625 L 161.359375 44.015625 C 162.300781 43.3125 163.074219 42.71875 163.875 42.152344 C 164.300781 41.863281 164.480469 41.53125 164.480469 40.992188 C 164.46875 29.605469 164.480469 18.203125 164.441406 6.816406 C 164.441406 6.457031 164.179688 6 163.886719 5.75 C 163.167969 5.113281 162.367188 4.578125 161.621094 3.773438 C 162.023438 3.773438 162.4375 3.761719 162.839844 3.773438 C 165.089844 3.886719 167.355469 3.871094 169.582031 4.132812 C 172.6875 4.492188 175.273438 6.011719 177.550781 8.195312 C 177.550781 7.699219 177.605469 7.1875 177.539062 6.691406 C 177.496094 6.386719 177.316406 6.011719 177.082031 5.820312 C 176.292969 5.171875 175.464844 4.605469 174.457031 3.859375 L 185.730469 3.859375 C 184.859375 4.519531 184.140625 5.101562 183.382812 5.613281 C 182.914062 5.945312 182.691406 6.304688 182.691406 6.898438 C 182.707031 18.230469 182.707031 29.574219 182.691406 40.90625 C 182.691406 41.476562 182.871094 41.820312 183.328125 42.136719 C 184.113281 42.691406 184.886719 43.269531 185.871094 44.003906 Z M 185.871094 44.03125 " fill-opacity="1" fill-rule="nonzero"/><path fill="#000000" d="M 87.886719 3.816406 C 89.667969 3.816406 91.453125 3.816406 93.234375 3.816406 C 93.925781 3.816406 94.617188 3.925781 95.292969 3.871094 C 100.902344 3.375 107.976562 8.804688 106.910156 17.070312 C 106.523438 20.09375 105.085938 22.582031 102.738281 24.546875 C 102.40625 24.820312 102.351562 25.058594 102.503906 25.457031 C 104.5625 30.625 106.609375 35.808594 108.667969 40.964844 C 108.789062 41.28125 109.023438 41.570312 109.289062 41.792969 C 110.117188 42.496094 110.988281 43.175781 112.007812 44.003906 L 100.597656 44.003906 C 101.425781 43.4375 102.101562 42.941406 102.808594 42.496094 C 103.179688 42.261719 103.238281 42.027344 103.070312 41.613281 C 101.21875 36.984375 99.382812 32.355469 97.585938 27.695312 C 97.28125 26.894531 96.730469 27.144531 96.246094 27.226562 C 96.066406 27.253906 95.84375 27.738281 95.84375 28.015625 C 95.816406 32.339844 95.816406 36.679688 95.84375 41.003906 C 95.84375 41.363281 96.121094 41.820312 96.410156 42.070312 C 97.183594 42.71875 98.027344 43.269531 99.023438 44.003906 L 87.597656 44.003906 C 88.507812 43.3125 89.269531 42.675781 90.097656 42.125 C 90.554688 41.820312 90.675781 41.472656 90.664062 40.949219 C 90.664062 36.429688 90.664062 31.898438 90.664062 27.378906 C 90.664062 20.566406 90.664062 13.765625 90.664062 6.953125 C 90.664062 6.332031 90.46875 5.929688 89.960938 5.597656 C 89.214844 5.101562 88.507812 4.535156 87.789062 3.996094 C 87.816406 3.941406 87.84375 3.871094 87.875 3.816406 Z M 95.898438 6.429688 L 95.898438 22.957031 C 97.074219 22.859375 98.125 22.402344 98.953125 21.671875 C 102.53125 18.492188 102.988281 12.261719 99.894531 8.613281 C 98.855469 7.394531 97.613281 6.582031 95.914062 6.414062 Z M 95.898438 6.429688 " fill-opacity="1" fill-rule="nonzero"/><g clip-path="url(#bb9b95a973)"><path fill="#000000" d="M 28.601562 19.527344 C 29.902344 20.621094 31.3125 21.53125 32.375 22.75 C 35.84375 26.6875 36.644531 31.261719 34.683594 36.085938 C 32.707031 40.90625 28.90625 43.65625 23.683594 43.988281 C 19.898438 44.226562 16.085938 44.074219 12.273438 44.085938 C 12.230469 44.085938 12.175781 44.046875 11.980469 43.949219 C 12.796875 43.339844 13.515625 42.730469 14.304688 42.222656 C 14.871094 41.863281 15.007812 41.417969 15.007812 40.785156 C 14.996094 29.5625 14.996094 18.328125 15.007812 7.105469 C 15.007812 6.371094 14.773438 5.929688 14.207031 5.542969 C 13.488281 5.058594 12.8125 4.507812 12.175781 3.816406 C 12.464844 3.800781 12.742188 3.773438 13.03125 3.773438 C 15.917969 3.800781 18.820312 3.953125 21.707031 3.84375 C 24.003906 3.761719 26.003906 4.355469 27.789062 5.738281 C 32.015625 9 32.539062 15.191406 28.921875 19.140625 C 28.78125 19.292969 28.644531 19.460938 28.601562 19.515625 Z M 20.121094 31.289062 C 20.121094 34.34375 20.148438 37.410156 20.105469 40.464844 C 20.105469 41.128906 20.339844 41.335938 20.933594 41.378906 C 22.730469 41.515625 24.390625 41.128906 25.894531 40.148438 C 30.496094 37.164062 31.988281 30.460938 29.015625 25.625 C 27.195312 22.636719 24.652344 20.785156 20.90625 21.117188 C 20.230469 21.171875 20.105469 21.410156 20.105469 22.015625 C 20.132812 25.097656 20.105469 28.195312 20.105469 31.277344 Z M 20.078125 18.300781 C 22.550781 18.628906 23.988281 18.050781 25.148438 16.296875 C 26.722656 13.917969 26.53125 10.1875 24.679688 8.003906 C 23.699219 6.84375 22.441406 6.261719 20.878906 6.441406 C 20.300781 6.511719 20.105469 6.757812 20.105469 7.355469 C 20.105469 10.269531 20.09375 13.1875 20.078125 16.117188 C 20.078125 16.847656 20.078125 17.59375 20.078125 18.300781 Z M 20.078125 18.300781 " fill-opacity="1" fill-rule="nonzero"/></g><path fill="#000000" d="M 129.25 19.613281 C 130.175781 20.261719 131.074219 20.800781 131.863281 21.464844 C 135.910156 24.917969 137.417969 30.238281 135.8125 35.160156 C 134.183594 40.148438 129.847656 43.671875 124.527344 43.960938 C 120.742188 44.167969 116.929688 44.046875 113.113281 44.058594 C 113.046875 44.058594 112.976562 44.003906 112.753906 43.90625 C 113.613281 43.269531 114.371094 42.664062 115.171875 42.109375 C 115.601562 41.820312 115.765625 41.472656 115.765625 40.949219 C 115.753906 29.589844 115.753906 18.230469 115.765625 6.871094 C 115.765625 6.289062 115.546875 5.957031 115.117188 5.652344 C 114.371094 5.113281 113.640625 4.546875 112.960938 3.816406 C 113.253906 3.816406 113.527344 3.773438 113.820312 3.773438 C 116.734375 3.800781 119.664062 3.941406 122.578125 3.84375 C 124.789062 3.761719 126.710938 4.355469 128.4375 5.640625 C 132.800781 8.902344 133.339844 15.230469 129.609375 19.210938 C 129.5 19.335938 129.390625 19.445312 129.25 19.613281 Z M 120.894531 31.152344 C 120.894531 34.261719 120.921875 37.382812 120.878906 40.492188 C 120.878906 41.15625 121.113281 41.351562 121.707031 41.390625 C 123.53125 41.515625 125.246094 41.15625 126.738281 40.105469 C 130.46875 37.496094 131.753906 33.777344 131.128906 29.410156 C 130.425781 24.378906 126.476562 20.9375 121.75 20.992188 C 121.058594 20.992188 120.867188 21.214844 120.878906 21.890625 C 120.90625 24.972656 120.894531 28.070312 120.894531 31.152344 Z M 120.878906 18.269531 C 122.605469 18.628906 124.472656 18.09375 125.453125 17 C 127.578125 14.636719 127.402344 9.855469 125.105469 7.65625 C 124.140625 6.730469 123.007812 6.277344 121.652344 6.441406 C 121.085938 6.511719 120.867188 6.71875 120.867188 7.328125 C 120.894531 9.773438 120.867188 12.230469 120.867188 14.679688 C 120.867188 15.878906 120.867188 17.082031 120.867188 18.269531 Z M 120.878906 18.269531 " fill-opacity="1" fill-rule="nonzero"/><path fill="#000000" d="M 335.164062 19.128906 C 335.039062 19.5 335.011719 19.929688 334.792969 20.234375 C 334.238281 21.023438 333.65625 21.824219 332.996094 22.515625 C 331.75 23.828125 330.203125 23.882812 328.617188 23.316406 C 327.578125 22.941406 326.585938 22.429688 325.519531 21.960938 L 325.519531 41.363281 C 327.621094 41.503906 329.445312 40.964844 330.976562 39.539062 C 332.46875 38.128906 333.546875 36.445312 334.292969 34.550781 C 334.515625 34 334.734375 33.429688 335.121094 32.878906 C 335.191406 33.167969 335.300781 33.445312 335.316406 33.734375 C 335.371094 36.210938 335.398438 38.683594 335.441406 41.171875 C 335.441406 41.917969 335.453125 42.675781 335.496094 43.421875 C 335.507812 43.808594 335.371094 43.960938 335 43.933594 C 334.957031 43.933594 334.902344 43.933594 334.847656 43.933594 C 329.265625 43.960938 323.683594 43.988281 318.101562 44.015625 C 317.9375 44.015625 317.785156 44.003906 317.382812 43.976562 C 317.785156 43.628906 318.003906 43.339844 318.292969 43.203125 C 320.035156 42.359375 320.464844 41.019531 320.410156 39.097656 C 320.257812 32.933594 320.339844 26.757812 320.339844 20.578125 C 320.339844 15.992188 320.339844 11.402344 320.367188 6.800781 C 320.367188 6.289062 320.214844 5.945312 319.785156 5.652344 C 319.011719 5.128906 318.28125 4.535156 317.5625 3.800781 C 317.757812 3.773438 317.949219 3.746094 318.144531 3.746094 C 323.335938 3.746094 328.53125 3.746094 333.742188 3.746094 C 334.292969 3.746094 334.488281 3.886719 334.472656 4.480469 C 334.390625 7.617188 334.363281 10.738281 334.308594 13.875 C 334.308594 14.179688 334.210938 14.484375 334.15625 14.789062 C 334.085938 14.804688 334.015625 14.816406 333.960938 14.832031 C 333.742188 14.292969 333.519531 13.765625 333.3125 13.226562 C 332.582031 11.292969 331.503906 9.578125 329.96875 8.167969 C 328.890625 7.175781 327.660156 6.46875 326.15625 6.386719 C 325.960938 6.386719 325.78125 6.386719 325.519531 6.386719 C 325.507812 6.675781 325.480469 6.910156 325.480469 7.148438 C 325.480469 10.117188 325.480469 13.074219 325.480469 16.046875 C 325.480469 16.488281 325.601562 16.710938 326.046875 16.902344 C 327.273438 17.402344 328.503906 17.941406 329.679688 18.5625 C 331.390625 19.460938 333.105469 20.09375 335 19.003906 C 335.054688 19.046875 335.121094 19.101562 335.179688 19.140625 Z M 335.164062 19.128906 " fill-opacity="1" fill-rule="nonzero"/><path fill="#000000" d="M 60.628906 3.816406 L 71.679688 3.816406 C 71.679688 3.816406 71.734375 3.925781 71.777344 3.96875 C 71.085938 4.480469 70.421875 5.03125 69.707031 5.488281 C 69.097656 5.890625 68.863281 6.34375 68.863281 7.105469 C 68.890625 14.832031 68.875 22.554688 68.890625 30.265625 C 68.890625 32.617188 68.929688 34.953125 68.960938 37.300781 C 68.972656 39.472656 70.507812 41.144531 72.71875 41.390625 C 74.84375 41.625 76.902344 40.175781 77.332031 38.101562 C 77.429688 37.648438 77.457031 37.175781 77.457031 36.707031 C 77.457031 26.785156 77.457031 16.847656 77.46875 6.925781 C 77.46875 6.332031 77.261719 5.957031 76.792969 5.625 C 76.03125 5.101562 75.3125 4.519531 74.417969 3.859375 L 85.289062 3.859375 C 85.289062 3.859375 85.34375 3.980469 85.359375 4.039062 C 84.640625 4.589844 83.9375 5.15625 83.175781 5.667969 C 82.707031 5.984375 82.566406 6.359375 82.566406 6.898438 C 82.582031 16.089844 82.582031 25.265625 82.566406 34.453125 C 82.566406 39.414062 79.183594 43.285156 74.292969 43.949219 C 69.195312 44.652344 64.316406 40.824219 63.777344 35.671875 C 63.722656 35.089844 63.710938 34.507812 63.710938 33.929688 C 63.710938 24.960938 63.710938 16.003906 63.710938 7.035156 C 63.710938 6.359375 63.53125 5.917969 62.949219 5.542969 C 62.1875 5.058594 61.5 4.480469 60.601562 3.789062 Z M 60.628906 3.816406 " fill-opacity="1" fill-rule="nonzero"/><path fill="#000000" d="M 158.363281 23.980469 C 158.363281 27.460938 158.390625 30.929688 158.363281 34.414062 C 158.320312 39.472656 154.976562 43.296875 150.058594 43.976562 C 145.167969 44.640625 140.441406 41.144531 139.65625 36.25 C 139.542969 35.546875 139.476562 34.828125 139.476562 34.109375 C 139.476562 27.296875 139.449219 20.484375 139.476562 13.667969 C 139.476562 8.320312 143.082031 4.257812 148.136719 3.828125 C 153.746094 3.359375 158.320312 7.617188 158.363281 13.40625 C 158.390625 16.945312 158.363281 20.46875 158.363281 24.007812 Z M 153.152344 23.9375 C 153.152344 19.5 153.152344 15.050781 153.152344 10.617188 C 153.152344 8.886719 152.339844 7.65625 150.859375 6.882812 C 149.4375 6.136719 147.972656 6.222656 146.605469 7.078125 C 145.167969 7.976562 144.613281 9.359375 144.613281 11.015625 C 144.613281 19.625 144.613281 28.234375 144.613281 36.832031 C 144.613281 37.078125 144.628906 37.328125 144.65625 37.578125 C 144.890625 39.898438 146.796875 41.515625 149.132812 41.417969 C 151.398438 41.324219 153.125 39.5 153.125 37.191406 C 153.125 32.78125 153.125 28.359375 153.125 23.953125 Z M 153.152344 23.9375 " fill-opacity="1" fill-rule="nonzero"/><path fill="#000000" d="M 38.730469 23.894531 C 38.730469 20.304688 38.675781 16.722656 38.742188 13.128906 C 38.828125 9.289062 40.59375 6.371094 44.0625 4.726562 C 47.542969 3.070312 50.957031 3.457031 54.023438 5.832031 C 56.484375 7.726562 57.601562 10.339844 57.617188 13.40625 C 57.644531 20.386719 57.671875 27.363281 57.617188 34.34375 C 57.5625 41.128906 51.386719 45.621094 45.113281 43.535156 C 41.3125 42.261719 38.785156 38.722656 38.742188 34.566406 C 38.714844 31 38.742188 27.449219 38.742188 23.882812 Z M 52.449219 23.910156 C 52.449219 19.695312 52.449219 15.464844 52.449219 11.25 C 52.449219 10.808594 52.449219 10.367188 52.367188 9.9375 C 51.910156 7.035156 48.582031 5.488281 46.050781 6.96875 C 44.464844 7.90625 43.871094 9.332031 43.871094 11.125 C 43.882812 19.625 43.871094 28.125 43.871094 36.609375 C 43.871094 36.914062 43.882812 37.21875 43.898438 37.523438 C 43.980469 38.78125 44.546875 39.800781 45.554688 40.535156 C 46.9375 41.558594 48.457031 41.722656 50.003906 40.992188 C 51.660156 40.203125 52.433594 38.808594 52.433594 36.984375 C 52.433594 32.628906 52.433594 28.261719 52.433594 23.910156 Z M 52.449219 23.910156 " fill-opacity="1" fill-rule="nonzero"/></svg>