<svg xmlns="http://www.w3.org/2000/svg" xmlns:xlink="http://www.w3.org/1999/xlink" width="500" zoomAndPan="magnify" viewBox="0 0 375 54.75" height="73" preserveAspectRatio="xMidYMid meet" version="1.0"><defs><clipPath id="138b9227e6"><path d="M 9.238281 2 L 34 2 L 34 43 L 9.238281 43 Z M 9.238281 2 " clip-rule="nonzero"/></clipPath></defs><path fill="#ffffff" d="M 226.570312 21.683594 C 223.589844 19.898438 221.433594 17.4375 220.121094 14.296875 C 219.390625 12.550781 218.902344 10.722656 218.246094 8.9375 C 217.894531 8 217.476562 7.078125 217 6.214844 C 216.847656 5.933594 216.398438 5.640625 216.089844 5.640625 C 214.285156 5.585938 212.464844 5.613281 210.453125 5.613281 C 212.550781 10.402344 214.621094 15.121094 216.707031 19.882812 C 215.949219 20.160156 215.320312 20.453125 214.648438 20.636719 C 211.542969 21.53125 209.234375 23.457031 207.820312 26.277344 C 205.441406 31.011719 205.023438 36.007812 206.574219 41.0625 C 207.679688 44.691406 210.324219 46.914062 213.824219 48.421875 C 218.496094 50.445312 225.785156 47.109375 226.890625 41.148438 C 227.285156 39.050781 226.976562 37.082031 225.882812 35.269531 C 224.441406 32.882812 221.28125 31.75 218.652344 32.644531 C 215.910156 33.566406 214.160156 36.175781 214.410156 38.941406 C 214.621094 41.300781 216.859375 42.863281 219.167969 42.234375 C 220.246094 41.941406 220.945312 41.148438 220.972656 40.199219 C 221 39.246094 220.359375 38.382812 219.351562 38.003906 C 219.253906 37.964844 219.15625 37.933594 218.832031 37.824219 C 219.867188 37.503906 220.695312 37.53125 221.492188 37.878906 C 224.484375 39.21875 224.765625 42.472656 222.820312 44.777344 C 221.097656 46.800781 218.820312 47.152344 216.34375 46.605469 C 212.59375 45.796875 210.453125 43.226562 210.003906 39.386719 C 209.402344 34.304688 212.773438 31.109375 215.710938 29.78125 C 220.59375 27.574219 227.421875 29.921875 229.675781 36.34375 C 231.550781 41.675781 229.71875 47.234375 225.042969 50.402344 C 220.960938 53.183594 216.453125 53.976562 211.640625 52.875 C 203.933594 51.101562 199.089844 44.777344 198.335938 37.699219 C 197.859375 33.246094 198.378906 28.957031 200.585938 24.992188 C 202.394531 21.765625 204.96875 19.324219 208.339844 17.550781 C 206.226562 12.496094 204.128906 7.46875 201.972656 2.316406 L 226.683594 2.316406 C 223.574219 8.742188 224.136719 15.136719 226.597656 21.667969 Z M 226.570312 21.683594 " fill-opacity="1" fill-rule="nonzero"/><path fill="#ffffff" d="M 365.390625 42.835938 L 354.074219 42.835938 C 355.09375 42.082031 355.960938 41.46875 356.789062 40.796875 C 357.011719 40.617188 357.222656 40.253906 357.222656 39.960938 C 357.25 34.234375 357.234375 28.523438 357.234375 22.800781 C 357.234375 22.632812 357.207031 22.480469 357.179688 22.242188 C 354.269531 22.5625 351.933594 20.902344 349.316406 19.996094 C 349.289062 20.300781 349.261719 20.511719 349.261719 20.707031 C 349.261719 27.058594 349.261719 33.425781 349.261719 39.777344 C 349.261719 40.28125 349.414062 40.601562 349.820312 40.882812 C 350.644531 41.453125 351.429688 42.066406 352.394531 42.792969 L 340.976562 42.792969 C 341.886719 42.109375 342.640625 41.511719 343.441406 40.964844 C 343.914062 40.644531 344.097656 40.28125 344.082031 39.695312 C 344.054688 32.671875 344.054688 25.648438 344.054688 18.625 C 344.054688 14.1875 344.054688 9.746094 344.082031 5.292969 C 344.082031 4.734375 343.929688 4.382812 343.46875 4.078125 C 342.671875 3.53125 341.902344 2.917969 340.964844 2.21875 L 352.351562 2.21875 C 351.441406 2.90625 350.703125 3.519531 349.902344 4.050781 C 349.429688 4.371094 349.246094 4.746094 349.261719 5.320312 C 349.289062 8.320312 349.289062 11.308594 349.261719 14.3125 C 349.261719 14.910156 349.398438 15.078125 350.03125 15.234375 C 351.667969 15.636719 353.261719 16.195312 354.871094 16.742188 C 355.625 16.992188 356.355469 17.355469 357.222656 17.703125 C 357.234375 17.328125 357.261719 17.0625 357.261719 16.8125 C 357.261719 12.957031 357.261719 9.105469 357.277344 5.25 C 357.277344 4.71875 357.109375 4.382812 356.691406 4.089844 C 355.878906 3.53125 355.109375 2.933594 354.171875 2.234375 L 365.601562 2.234375 C 364.707031 2.890625 363.921875 3.492188 363.113281 4.050781 C 362.636719 4.371094 362.441406 4.71875 362.441406 5.304688 C 362.453125 16.769531 362.453125 28.230469 362.441406 39.695312 C 362.441406 40.238281 362.578125 40.601562 363.054688 40.910156 C 363.894531 41.453125 364.679688 42.082031 365.488281 42.667969 C 365.476562 42.710938 365.449219 42.765625 365.433594 42.808594 Z M 365.390625 42.835938 " fill-opacity="1" fill-rule="nonzero"/><path fill="#ffffff" d="M 299.171875 14.925781 C 301.421875 11.253906 303.691406 7.582031 305.984375 3.839844 C 305.328125 3.335938 304.699219 2.847656 303.914062 2.25 L 315.304688 2.25 C 314.9375 2.527344 314.742188 2.679688 314.546875 2.820312 C 313.582031 3.53125 312.589844 4.230469 311.636719 4.957031 C 311.371094 5.167969 311.121094 5.417969 310.953125 5.710938 C 308.574219 9.550781 306.222656 13.417969 303.859375 17.257812 C 303.648438 17.59375 303.550781 17.859375 303.773438 18.261719 C 305.871094 22.171875 307.945312 26.109375 310.027344 30.03125 C 311.722656 33.214844 313.398438 36.414062 315.136719 39.582031 C 315.402344 40.070312 315.875 40.476562 316.324219 40.839844 C 317.121094 41.480469 317.976562 42.054688 318.96875 42.792969 L 307.523438 42.792969 C 308.167969 42.292969 308.683594 41.84375 309.273438 41.480469 C 309.832031 41.132812 309.886719 40.824219 309.566406 40.238281 C 306.574219 34.625 303.605469 29.015625 300.625 23.386719 C 300.585938 23.304688 300.527344 23.21875 300.386719 23.011719 C 299.855469 24.058594 298.988281 24.785156 299.003906 26.039062 C 299.046875 30.605469 299.03125 35.171875 299.003906 39.738281 C 299.003906 40.308594 299.183594 40.644531 299.632812 40.9375 C 300.429688 41.496094 301.199219 42.097656 302.152344 42.792969 L 290.75 42.792969 C 291.320312 42.347656 291.753906 41.929688 292.257812 41.664062 C 293.558594 40.980469 293.925781 39.988281 293.894531 38.507812 C 293.796875 34 293.925781 29.472656 293.925781 24.949219 C 293.925781 18.320312 293.882812 11.699219 293.839844 5.070312 C 293.839844 4.777344 293.601562 4.398438 293.351562 4.1875 C 292.566406 3.53125 291.714844 2.960938 290.734375 2.21875 L 302.136719 2.21875 C 301.339844 2.820312 300.738281 3.367188 300.039062 3.769531 C 299.242188 4.230469 298.988281 4.832031 299.015625 5.738281 C 299.085938 8.53125 299.046875 11.335938 299.046875 14.128906 C 299.046875 14.367188 299.046875 14.605469 299.046875 14.84375 C 299.101562 14.855469 299.171875 14.871094 299.226562 14.898438 Z M 299.171875 14.925781 " fill-opacity="1" fill-rule="nonzero"/><path fill="#ffffff" d="M 258.035156 18.261719 C 259.980469 19.28125 261.617188 20.539062 262.820312 22.257812 C 265.730469 26.402344 266.277344 30.855469 264.09375 35.421875 C 261.871094 40.101562 257.996094 42.613281 252.804688 42.835938 C 249.125 42.988281 245.429688 42.878906 241.738281 42.878906 C 241.667969 42.878906 241.609375 42.851562 241.371094 42.78125 C 242.210938 42.152344 242.941406 41.550781 243.710938 41.035156 C 244.242188 40.6875 244.4375 40.28125 244.421875 39.640625 C 244.410156 28.246094 244.410156 16.851562 244.421875 5.460938 C 244.421875 4.84375 244.296875 4.414062 243.738281 4.050781 C 242.953125 3.53125 242.226562 2.933594 241.46875 2.359375 C 241.484375 2.304688 241.511719 2.234375 241.527344 2.179688 C 241.777344 2.179688 242.042969 2.179688 242.296875 2.179688 C 245.289062 2.207031 248.296875 2.304688 251.292969 2.21875 C 253.910156 2.152344 256.132812 2.945312 258.007812 4.707031 C 261.785156 8.253906 261.941406 14.03125 258.398438 17.800781 C 258.289062 17.929688 258.175781 18.054688 258.007812 18.25 Z M 249.699219 40.070312 C 252.105469 40.492188 254.1875 39.945312 256.050781 38.550781 C 258.582031 36.652344 259.800781 34.027344 260.136719 30.925781 C 260.609375 26.445312 258.175781 22.019531 254.214844 20.246094 C 252.761719 19.589844 251.265625 19.464844 249.710938 19.828125 L 249.710938 40.070312 Z M 249.65625 17.273438 C 251.824219 17.257812 253.546875 16.617188 254.707031 14.828125 C 256.203125 12.523438 256.148438 9.035156 254.539062 6.8125 C 253.53125 5.433594 252.203125 4.679688 250.425781 4.84375 C 249.851562 4.902344 249.628906 5.109375 249.640625 5.710938 C 249.667969 8.042969 249.65625 10.375 249.65625 12.707031 Z M 249.65625 17.273438 " fill-opacity="1" fill-rule="nonzero"/><path fill="#ffffff" d="M 287.570312 22.492188 C 287.570312 26.082031 287.601562 29.65625 287.570312 33.246094 C 287.53125 38.199219 284.003906 42.222656 279.246094 42.78125 C 273.621094 43.4375 268.894531 39.527344 268.472656 33.871094 C 268.445312 33.578125 268.433594 33.285156 268.433594 32.992188 C 268.433594 26.027344 268.417969 19.042969 268.433594 12.078125 C 268.433594 7.539062 271.078125 3.867188 275.148438 2.625 C 281.375 0.710938 287.503906 5.25 287.558594 11.828125 C 287.585938 15.386719 287.558594 18.945312 287.558594 22.507812 Z M 282.367188 22.550781 C 282.367188 19.730469 282.367188 16.894531 282.367188 14.074219 C 282.367188 12.398438 282.394531 10.738281 282.367188 9.0625 C 282.324219 7.34375 281.515625 6.046875 279.976562 5.277344 C 278.449219 4.511719 276.910156 4.621094 275.496094 5.628906 C 274.167969 6.5625 273.664062 7.917969 273.664062 9.523438 C 273.679688 18.191406 273.664062 26.863281 273.664062 35.519531 C 273.664062 35.785156 273.691406 36.066406 273.707031 36.328125 C 273.859375 38.160156 275.21875 39.707031 277.023438 40.113281 C 279.835938 40.742188 282.339844 38.703125 282.351562 35.742188 C 282.382812 31.34375 282.351562 26.949219 282.351562 22.5625 Z M 282.367188 22.550781 " fill-opacity="1" fill-rule="nonzero"/><path fill="#ffffff" d="M 185.867188 42.890625 L 174.242188 42.890625 C 174.996094 42.320312 175.542969 41.816406 176.171875 41.46875 C 177.195312 40.910156 177.503906 40.15625 177.488281 38.984375 C 177.417969 31.960938 177.460938 24.9375 177.445312 17.914062 C 177.445312 13.472656 174.464844 9.410156 170.253906 8.015625 C 170.03125 7.945312 169.777344 7.890625 169.429688 7.792969 L 169.429688 8.78125 C 169.429688 19.074219 169.429688 29.347656 169.414062 39.640625 C 169.414062 40.296875 169.597656 40.714844 170.15625 41.078125 C 170.941406 41.59375 171.667969 42.195312 172.5625 42.878906 L 161.046875 42.878906 C 162 42.164062 162.78125 41.566406 163.59375 40.992188 C 164.027344 40.699219 164.210938 40.363281 164.210938 39.820312 C 164.195312 28.316406 164.210938 16.796875 164.167969 5.292969 C 164.167969 4.929688 163.902344 4.46875 163.609375 4.21875 C 162.882812 3.574219 162.070312 3.03125 161.3125 2.21875 C 161.71875 2.21875 162.140625 2.207031 162.546875 2.21875 C 164.824219 2.332031 167.121094 2.316406 169.375 2.582031 C 172.519531 2.945312 175.136719 4.480469 177.445312 6.6875 C 177.445312 6.1875 177.503906 5.667969 177.433594 5.167969 C 177.390625 4.859375 177.207031 4.480469 176.96875 4.285156 C 176.171875 3.628906 175.332031 3.058594 174.3125 2.304688 L 185.730469 2.304688 C 184.847656 2.972656 184.121094 3.5625 183.351562 4.078125 C 182.875 4.414062 182.652344 4.777344 182.652344 5.375 C 182.664062 16.824219 182.664062 28.289062 182.652344 39.738281 C 182.652344 40.308594 182.832031 40.65625 183.292969 40.980469 C 184.09375 41.539062 184.875 42.125 185.867188 42.863281 Z M 185.867188 42.890625 " fill-opacity="1" fill-rule="nonzero"/><path fill="#ffffff" d="M 86.640625 2.261719 C 88.445312 2.261719 90.25 2.261719 92.058594 2.261719 C 92.757812 2.261719 93.457031 2.375 94.140625 2.316406 C 99.820312 1.816406 106.984375 7.300781 105.90625 15.652344 C 105.515625 18.710938 104.0625 21.222656 101.683594 23.207031 C 101.347656 23.484375 101.292969 23.722656 101.445312 24.128906 C 103.53125 29.347656 105.601562 34.585938 107.683594 39.792969 C 107.8125 40.113281 108.050781 40.40625 108.316406 40.628906 C 109.152344 41.34375 110.035156 42.027344 111.070312 42.863281 L 99.515625 42.863281 C 100.355469 42.292969 101.039062 41.789062 101.753906 41.34375 C 102.128906 41.105469 102.1875 40.867188 102.019531 40.449219 C 100.144531 35.769531 98.28125 31.09375 96.464844 26.390625 C 96.15625 25.578125 95.597656 25.832031 95.105469 25.914062 C 94.925781 25.941406 94.699219 26.429688 94.699219 26.710938 C 94.671875 31.082031 94.671875 35.464844 94.699219 39.835938 C 94.699219 40.199219 94.980469 40.65625 95.273438 40.910156 C 96.058594 41.566406 96.910156 42.125 97.917969 42.863281 L 86.347656 42.863281 C 87.273438 42.167969 88.042969 41.523438 88.878906 40.964844 C 89.34375 40.65625 89.46875 40.308594 89.453125 39.777344 C 89.453125 35.214844 89.453125 30.632812 89.453125 26.066406 C 89.453125 19.183594 89.453125 12.316406 89.453125 5.433594 C 89.453125 4.804688 89.257812 4.398438 88.742188 4.0625 C 87.984375 3.5625 87.273438 2.988281 86.542969 2.445312 C 86.570312 2.386719 86.601562 2.316406 86.628906 2.261719 Z M 94.757812 4.902344 L 94.757812 21.601562 C 95.945312 21.503906 97.007812 21.042969 97.847656 20.300781 C 101.472656 17.089844 101.933594 10.792969 98.800781 7.105469 C 97.75 5.878906 96.492188 5.054688 94.769531 4.886719 Z M 94.757812 4.902344 " fill-opacity="1" fill-rule="nonzero"/><g clip-path="url(#138b9227e6)"><path fill="#ffffff" d="M 26.605469 18.136719 C 27.921875 19.242188 29.347656 20.160156 30.425781 21.390625 C 33.9375 25.371094 34.75 29.992188 32.761719 34.863281 C 30.761719 39.738281 26.914062 42.515625 21.625 42.851562 C 17.789062 43.085938 13.929688 42.933594 10.066406 42.949219 C 10.023438 42.949219 9.96875 42.90625 9.773438 42.808594 C 10.597656 42.195312 11.328125 41.578125 12.125 41.0625 C 12.699219 40.699219 12.835938 40.253906 12.835938 39.609375 C 12.824219 28.273438 12.824219 16.921875 12.835938 5.585938 C 12.835938 4.84375 12.601562 4.398438 12.027344 4.007812 C 11.296875 3.519531 10.613281 2.960938 9.96875 2.261719 C 10.261719 2.25 10.542969 2.21875 10.835938 2.21875 C 13.761719 2.25 16.699219 2.402344 19.625 2.289062 C 21.945312 2.207031 23.976562 2.808594 25.78125 4.203125 C 30.0625 7.5 30.59375 13.753906 26.925781 17.746094 C 26.785156 17.898438 26.648438 18.066406 26.605469 18.125 Z M 18.015625 30.019531 C 18.015625 33.105469 18.042969 36.203125 18 39.289062 C 18 39.960938 18.238281 40.167969 18.839844 40.210938 C 20.660156 40.351562 22.335938 39.960938 23.863281 38.96875 C 28.523438 35.953125 30.03125 29.179688 27.023438 24.292969 C 25.179688 21.277344 22.605469 19.40625 18.8125 19.742188 C 18.125 19.796875 18 20.035156 18 20.652344 C 18.027344 23.765625 18 26.890625 18 30.003906 Z M 17.972656 16.894531 C 20.476562 17.230469 21.933594 16.644531 23.105469 14.871094 C 24.703125 12.46875 24.507812 8.699219 22.632812 6.492188 C 21.636719 5.320312 20.363281 4.734375 18.785156 4.914062 C 18.195312 4.984375 18 5.238281 18 5.835938 C 18 8.78125 17.988281 11.730469 17.972656 14.6875 C 17.972656 15.429688 17.972656 16.183594 17.972656 16.894531 Z M 17.972656 16.894531 " fill-opacity="1" fill-rule="nonzero"/></g><path fill="#ffffff" d="M 128.53125 18.222656 C 129.46875 18.878906 130.378906 19.421875 131.175781 20.09375 C 135.277344 23.582031 136.800781 28.957031 135.179688 33.929688 C 133.527344 38.96875 129.132812 42.527344 123.746094 42.820312 C 119.914062 43.03125 116.050781 42.90625 112.191406 42.921875 C 112.121094 42.921875 112.050781 42.863281 111.828125 42.765625 C 112.695312 42.125 113.464844 41.511719 114.273438 40.953125 C 114.707031 40.65625 114.875 40.308594 114.875 39.777344 C 114.863281 28.300781 114.863281 16.824219 114.875 5.347656 C 114.875 4.761719 114.652344 4.425781 114.21875 4.121094 C 113.464844 3.574219 112.722656 3.003906 112.035156 2.261719 C 112.332031 2.261719 112.609375 2.21875 112.902344 2.21875 C 115.855469 2.25 118.820312 2.386719 121.773438 2.289062 C 124.011719 2.207031 125.957031 2.808594 127.707031 4.105469 C 132.128906 7.402344 132.671875 13.796875 128.894531 17.816406 C 128.785156 17.941406 128.671875 18.054688 128.53125 18.222656 Z M 120.066406 29.878906 C 120.066406 33.019531 120.09375 36.175781 120.054688 39.316406 C 120.054688 39.988281 120.292969 40.183594 120.894531 40.226562 C 122.738281 40.351562 124.476562 39.988281 125.984375 38.925781 C 129.761719 36.289062 131.066406 32.53125 130.433594 28.121094 C 129.722656 23.039062 125.71875 19.5625 120.933594 19.617188 C 120.234375 19.617188 120.039062 19.839844 120.054688 20.523438 C 120.082031 23.636719 120.066406 26.765625 120.066406 29.878906 Z M 120.054688 16.867188 C 121.800781 17.230469 123.691406 16.683594 124.683594 15.582031 C 126.839844 13.195312 126.65625 8.363281 124.335938 6.144531 C 123.355469 5.207031 122.207031 4.746094 120.835938 4.914062 C 120.261719 4.984375 120.039062 5.195312 120.039062 5.808594 C 120.066406 8.28125 120.039062 10.765625 120.039062 13.238281 C 120.039062 14.453125 120.039062 15.664062 120.039062 16.867188 Z M 120.054688 16.867188 " fill-opacity="1" fill-rule="nonzero"/><path fill="#ffffff" d="M 337.058594 17.730469 C 336.933594 18.109375 336.90625 18.542969 336.683594 18.847656 C 336.121094 19.644531 335.535156 20.453125 334.863281 21.152344 C 333.605469 22.480469 332.035156 22.535156 330.429688 21.964844 C 329.378906 21.585938 328.371094 21.070312 327.292969 20.59375 L 327.292969 40.199219 C 329.421875 40.335938 331.265625 39.792969 332.820312 38.355469 C 334.332031 36.929688 335.421875 35.226562 336.179688 33.3125 C 336.402344 32.753906 336.625 32.183594 337.019531 31.625 C 337.085938 31.917969 337.199219 32.195312 337.214844 32.492188 C 337.269531 34.988281 337.296875 37.488281 337.339844 40 C 337.339844 40.753906 337.351562 41.523438 337.394531 42.277344 C 337.410156 42.667969 337.269531 42.820312 336.890625 42.792969 C 336.851562 42.792969 336.792969 42.792969 336.738281 42.792969 C 331.085938 42.820312 325.433594 42.851562 319.78125 42.878906 C 319.613281 42.878906 319.457031 42.863281 319.054688 42.835938 C 319.457031 42.488281 319.683594 42.195312 319.976562 42.054688 C 321.738281 41.203125 322.171875 39.847656 322.117188 37.90625 C 321.964844 31.679688 322.046875 25.441406 322.046875 19.199219 C 322.046875 14.5625 322.046875 9.925781 322.074219 5.277344 C 322.074219 4.761719 321.921875 4.414062 321.488281 4.121094 C 320.703125 3.589844 319.960938 2.988281 319.234375 2.25 C 319.429688 2.21875 319.625 2.191406 319.824219 2.191406 C 325.082031 2.191406 330.34375 2.191406 335.617188 2.191406 C 336.179688 2.191406 336.375 2.332031 336.359375 2.933594 C 336.277344 6.101562 336.25 9.257812 336.191406 12.425781 C 336.191406 12.734375 336.09375 13.042969 336.039062 13.347656 C 335.96875 13.363281 335.898438 13.375 335.84375 13.390625 C 335.617188 12.84375 335.394531 12.316406 335.183594 11.769531 C 334.441406 9.816406 333.351562 8.085938 331.800781 6.660156 C 330.707031 5.65625 329.460938 4.941406 327.9375 4.859375 C 327.742188 4.859375 327.558594 4.859375 327.292969 4.859375 C 327.28125 5.152344 327.25 5.390625 327.25 5.628906 C 327.25 8.628906 327.25 11.617188 327.25 14.617188 C 327.25 15.066406 327.378906 15.289062 327.824219 15.484375 C 329.070312 15.988281 330.316406 16.53125 331.503906 17.160156 C 333.238281 18.066406 334.976562 18.710938 336.890625 17.605469 C 336.949219 17.648438 337.019531 17.703125 337.074219 17.746094 Z M 337.058594 17.730469 " fill-opacity="1" fill-rule="nonzero"/><path fill="#ffffff" d="M 59.035156 2.261719 L 70.230469 2.261719 C 70.230469 2.261719 70.285156 2.375 70.328125 2.414062 C 69.628906 2.933594 68.957031 3.492188 68.230469 3.953125 C 67.613281 4.355469 67.375 4.816406 67.375 5.585938 C 67.402344 13.390625 67.390625 21.195312 67.402344 28.984375 C 67.402344 31.359375 67.445312 33.71875 67.472656 36.09375 C 67.488281 38.285156 69.039062 39.972656 71.28125 40.226562 C 73.433594 40.460938 75.519531 38.996094 75.953125 36.902344 C 76.050781 36.441406 76.078125 35.96875 76.078125 35.492188 C 76.078125 25.46875 76.078125 15.429688 76.09375 5.402344 C 76.09375 4.804688 75.882812 4.425781 75.40625 4.089844 C 74.636719 3.5625 73.910156 2.972656 73 2.304688 L 84.011719 2.304688 C 84.011719 2.304688 84.066406 2.429688 84.082031 2.484375 C 83.355469 3.042969 82.640625 3.617188 81.871094 4.132812 C 81.394531 4.453125 81.253906 4.832031 81.253906 5.375 C 81.269531 14.660156 81.269531 23.929688 81.253906 33.214844 C 81.253906 38.230469 77.828125 42.136719 72.875 42.808594 C 67.710938 43.519531 62.773438 39.652344 62.226562 34.445312 C 62.171875 33.859375 62.15625 33.273438 62.15625 32.6875 C 62.15625 23.625 62.15625 14.578125 62.15625 5.515625 C 62.15625 4.832031 61.976562 4.382812 61.386719 4.007812 C 60.617188 3.519531 59.917969 2.933594 59.007812 2.234375 Z M 59.035156 2.261719 " fill-opacity="1" fill-rule="nonzero"/><path fill="#ffffff" d="M 158.011719 22.632812 C 158.011719 26.152344 158.039062 29.65625 158.011719 33.175781 C 157.96875 38.285156 154.585938 42.152344 149.601562 42.835938 C 144.648438 43.507812 139.867188 39.972656 139.066406 35.03125 C 138.957031 34.320312 138.886719 33.59375 138.886719 32.867188 C 138.886719 25.984375 138.859375 19.101562 138.886719 12.21875 C 138.886719 6.8125 142.539062 2.710938 147.660156 2.277344 C 153.339844 1.800781 157.96875 6.101562 158.011719 11.953125 C 158.039062 15.527344 158.011719 19.085938 158.011719 22.660156 Z M 152.738281 22.589844 C 152.738281 18.109375 152.738281 13.613281 152.738281 9.132812 C 152.738281 7.386719 151.910156 6.144531 150.414062 5.363281 C 148.972656 4.609375 147.492188 4.691406 146.105469 5.558594 C 144.648438 6.464844 144.089844 7.859375 144.089844 9.535156 C 144.089844 18.234375 144.089844 26.933594 144.089844 35.617188 C 144.089844 35.867188 144.105469 36.121094 144.132812 36.371094 C 144.371094 38.71875 146.300781 40.351562 148.664062 40.253906 C 150.960938 40.15625 152.710938 38.3125 152.710938 35.980469 C 152.710938 31.527344 152.710938 27.058594 152.710938 22.605469 Z M 152.738281 22.589844 " fill-opacity="1" fill-rule="nonzero"/><path fill="#ffffff" d="M 36.859375 22.550781 C 36.859375 18.917969 36.804688 15.304688 36.875 11.671875 C 36.957031 7.792969 38.75 4.84375 42.261719 3.183594 C 45.789062 1.507812 49.242188 1.898438 52.347656 4.300781 C 54.839844 6.214844 55.972656 8.851562 55.988281 11.953125 C 56.015625 19.003906 56.042969 26.054688 55.988281 33.105469 C 55.929688 39.960938 49.675781 44.496094 43.324219 42.390625 C 39.476562 41.105469 36.917969 37.53125 36.875 33.328125 C 36.847656 29.726562 36.875 26.136719 36.875 22.535156 Z M 50.753906 22.5625 C 50.753906 18.304688 50.753906 14.03125 50.753906 9.773438 C 50.753906 9.328125 50.753906 8.878906 50.671875 8.449219 C 50.207031 5.515625 46.835938 3.953125 44.277344 5.445312 C 42.667969 6.394531 42.066406 7.832031 42.066406 9.648438 C 42.078125 18.234375 42.066406 26.820312 42.066406 35.394531 C 42.066406 35.703125 42.078125 36.007812 42.09375 36.316406 C 42.175781 37.585938 42.75 38.621094 43.773438 39.359375 C 45.171875 40.394531 46.710938 40.558594 48.277344 39.820312 C 49.957031 39.023438 50.738281 37.613281 50.738281 35.769531 C 50.738281 31.375 50.738281 26.960938 50.738281 22.5625 Z M 50.753906 22.5625 " fill-opacity="1" fill-rule="nonzero"/></svg>