<?xml version="1.0" encoding="UTF-8"?>
<svg id="b_mark" data-name="b mark" xmlns="http://www.w3.org/2000/svg" viewBox="0 0 254.28 157.21">
  <path d="M199.87,77.51c-4.65-6.64-10.92-11.5-18.42-15.42.65-.75,1.06-1.25,1.51-1.73,13.63-14.58,13.01-36.88-1.54-50.56C174.19,3,165.61-.09,155.55.18c-7.74.21-14.51-.45-23.36-.05,0,0,0,0,0,0-14.9-.13-23.57,2.72-25.66,3.56-12.51,5.06-18.76,13.09-23.82,24.88-5.78,13.47-1.57,27.44,10.66,35.34,1.99,1.29,4.07,2.29,6.18,3.04-8.28-.76-17.18,1.89-23.74,7.88-9.43,8.6-14.83,19.65-16.23,32.79-2.25,21.07,11.14,37.91,26.24,44.75,7.99,3.62,19.36,4.59,29.92,4.59,0,0,0,0,0,0,14.21,0,31.4.57,45.59-.03,19.98-.84,34.9-10.58,43.46-28.61,8.37-17.62,6.27-34.83-4.92-50.81ZM93.49,49.79c-6.46-13.69,4.33-29.72,17.48-34.2,6-2.04,8.63-2.79,18.09-2,0,3.55,0,7.1,0,10.65-4.45-2.91-10.68-4.18-17.76-1.22-6.42,2.68-8.6,7.74-9.26,11.23-1.44,7.52,3.63,15.68,10.73,14.17-5.02-5.62-3.26-10.07-1.27-12.29,4.26-4.74,8.37-5.01,12.4-.57,4.71,5.18,4.66,13.1-.13,19.11-4.59,5.78-13.44,8.31-20.27,5.68-5.19-2-7.76-5.78-10.02-10.57ZM85.01,128.76c-7.17-5.37-9.96-13.67-10.51-23.72-.74-13.41,12.5-29.88,26.62-28.6,4.94.45,9.07,2.59,12.22,6.66,4.15,5.35,4.11,14.29.03,20.44-4.25,6.4-11.44,9.12-17.37,6.57-5.08-2.19-6.72-9.02-3.5-14.51,1.51-2.57,3.83-3.83,5.97-3.25,2.13.59,3.54,2.82,3.57,5.7,0,.28,0,.56-.02,1.44,1.56-2.46,2.14-4.59,1.99-6.88-.56-8.63-7.56-11.61-14.23-8.18-5.89,3.02-8.47,8.65-9.26,15.42-1.19,10.2,2.77,17.48,10.93,21.3,10.79,5.05,20.58-1.4,25.89-8.03,8.82-11.02,9.08-30.22-3.36-40.47-2.14-1.77-4.59-3.1-7.19-4.07,8.19.8,16.32-1.76,22.25-6.44,0,22.93,0,45.87.03,68.8-3.06,2.35-6.5,3.97-10.27,4.84-12.4,2.87-23.82.45-33.79-7.01ZM149.1,13.7c-.03-2.35.82-3.13,3.01-3.35,6.86-.69,11.96,2.23,15.83,7.58,6.21,8.57,6.44,22.02.67,30.92-4.46,6.87-11.09,9.35-19.46,9.42v-17.55c0-9,.08-18.01-.05-27.01ZM189.47,111.01c-1.28,11.94-5.96,22.06-15.71,29.41-7.14,5.38-15.18,7.49-24.44,5.85v-78.13c5.99-1.41,11.78-.89,17.38,1.63,15.22,6.84,24.63,23.95,22.77,41.24Z"/>
</svg>