<svg xmlns="http://www.w3.org/2000/svg" xmlns:xlink="http://www.w3.org/1999/xlink" width="40" zoomAndPan="magnify" viewBox="0 0 30 30.000001" height="40" preserveAspectRatio="xMidYMid meet" version="1.0"><defs><clipPath id="2a2e9e0da1"><path d="M 1.257812 0.515625 L 28.835938 0.515625 L 28.835938 28.820312 L 1.257812 28.820312 Z M 1.257812 0.515625 " clip-rule="nonzero"/></clipPath></defs><g clip-path="url(#2a2e9e0da1)"><path fill="#000000" d="M 26.773438 14.46875 C 25.9375 13.273438 24.816406 12.398438 23.46875 11.695312 C 23.585938 11.558594 23.660156 11.46875 23.742188 11.382812 C 26.183594 8.757812 26.074219 4.742188 23.464844 2.277344 C 22.167969 1.054688 20.632812 0.496094 18.828125 0.546875 C 17.441406 0.585938 16.226562 0.464844 14.640625 0.539062 C 11.96875 0.515625 10.414062 1.027344 10.039062 1.179688 C 7.796875 2.089844 6.675781 3.535156 5.769531 5.660156 C 4.734375 8.082031 5.488281 10.597656 7.679688 12.019531 C 8.039062 12.253906 8.410156 12.433594 8.789062 12.570312 C 7.304688 12.433594 5.710938 12.910156 4.53125 13.988281 C 2.84375 15.535156 1.875 17.527344 1.625 19.890625 C 1.21875 23.683594 3.621094 26.71875 6.328125 27.949219 C 7.761719 28.601562 9.796875 28.777344 11.691406 28.777344 C 14.238281 28.777344 17.320312 28.878906 19.863281 28.769531 C 23.445312 28.617188 26.121094 26.863281 27.65625 23.617188 C 29.15625 20.445312 28.777344 17.347656 26.773438 14.46875 Z M 7.703125 9.480469 C 6.542969 7.015625 8.480469 4.128906 10.835938 3.320312 C 11.910156 2.953125 12.382812 2.820312 14.078125 2.960938 C 14.078125 3.601562 14.078125 4.238281 14.078125 4.878906 C 13.28125 4.355469 12.164062 4.125 10.894531 4.660156 C 9.746094 5.140625 9.351562 6.050781 9.234375 6.679688 C 8.976562 8.035156 9.886719 9.503906 11.160156 9.230469 C 10.257812 8.21875 10.574219 7.417969 10.929688 7.019531 C 11.695312 6.167969 12.429688 6.117188 13.152344 6.917969 C 14 7.847656 13.988281 9.277344 13.128906 10.359375 C 12.308594 11.398438 10.722656 11.855469 9.496094 11.378906 C 8.566406 11.019531 8.105469 10.339844 7.699219 9.476562 Z M 6.183594 23.699219 C 4.898438 22.730469 4.398438 21.238281 4.296875 19.425781 C 4.164062 17.011719 6.539062 14.046875 9.070312 14.277344 C 9.957031 14.359375 10.695312 14.742188 11.261719 15.476562 C 12.003906 16.441406 11.996094 18.050781 11.265625 19.15625 C 10.503906 20.308594 9.214844 20.800781 8.152344 20.339844 C 7.242188 19.945312 6.949219 18.714844 7.523438 17.726562 C 7.796875 17.265625 8.210938 17.039062 8.59375 17.140625 C 8.976562 17.25 9.230469 17.648438 9.234375 18.167969 C 9.234375 18.21875 9.234375 18.269531 9.230469 18.429688 C 9.511719 17.984375 9.613281 17.601562 9.589844 17.1875 C 9.488281 15.636719 8.234375 15.097656 7.039062 15.714844 C 5.980469 16.261719 5.519531 17.273438 5.378906 18.492188 C 5.164062 20.328125 5.875 21.640625 7.335938 22.328125 C 9.269531 23.238281 11.027344 22.074219 11.976562 20.882812 C 13.558594 18.898438 13.605469 15.441406 11.375 13.59375 C 10.992188 13.277344 10.554688 13.035156 10.085938 12.863281 C 11.554688 13.007812 13.011719 12.546875 14.074219 11.703125 C 14.074219 15.832031 14.074219 19.960938 14.082031 24.089844 C 13.53125 24.511719 12.914062 24.804688 12.238281 24.960938 C 10.015625 25.480469 7.96875 25.042969 6.183594 23.699219 Z M 17.671875 2.980469 C 17.664062 2.558594 17.816406 2.417969 18.210938 2.378906 C 19.441406 2.253906 20.355469 2.777344 21.046875 3.742188 C 22.160156 5.285156 22.203125 7.707031 21.167969 9.308594 C 20.371094 10.546875 19.179688 10.992188 17.679688 11.007812 L 17.679688 7.847656 C 17.679688 6.226562 17.695312 4.601562 17.671875 2.984375 Z M 24.90625 20.503906 C 24.679688 22.652344 23.839844 24.472656 22.09375 25.796875 C 20.8125 26.765625 19.371094 27.144531 17.710938 26.851562 L 17.710938 12.78125 C 18.785156 12.527344 19.824219 12.621094 20.828125 13.078125 C 23.554688 14.308594 25.242188 17.390625 24.90625 20.503906 Z M 24.90625 20.503906 " fill-opacity="1" fill-rule="nonzero"/></g></svg>