<svg xmlns="http://www.w3.org/2000/svg" xmlns:xlink="http://www.w3.org/1999/xlink" width="40" zoomAndPan="magnify" viewBox="0 0 30 30.000001" height="40" preserveAspectRatio="xMidYMid meet" version="1.0"><defs><clipPath id="de555f03fa"><path d="M 1 0.519531 L 29 0.519531 L 29 28.824219 L 1 28.824219 Z M 1 0.519531 " clip-rule="nonzero"/></clipPath></defs><g clip-path="url(#de555f03fa)"><path fill="#ffffff" d="M 26.894531 14.476562 C 26.0625 13.28125 24.9375 12.40625 23.59375 11.699219 C 23.710938 11.5625 23.785156 11.472656 23.863281 11.386719 C 26.308594 8.761719 26.195312 4.746094 23.585938 2.285156 C 22.292969 1.058594 20.753906 0.503906 18.949219 0.550781 C 17.5625 0.589844 16.347656 0.46875 14.761719 0.542969 C 12.089844 0.519531 10.535156 1.03125 10.160156 1.183594 C 7.917969 2.09375 6.796875 3.539062 5.890625 5.664062 C 4.855469 8.089844 5.609375 10.605469 7.800781 12.027344 C 8.160156 12.257812 8.53125 12.4375 8.910156 12.574219 C 7.425781 12.4375 5.832031 12.914062 4.652344 13.992188 C 2.964844 15.539062 1.996094 17.53125 1.746094 19.894531 C 1.339844 23.691406 3.742188 26.722656 6.449219 27.953125 C 7.882812 28.605469 9.917969 28.78125 11.8125 28.78125 C 14.359375 28.78125 17.441406 28.882812 19.984375 28.773438 C 23.566406 28.625 26.242188 26.871094 27.777344 23.625 C 29.277344 20.449219 28.902344 17.351562 26.894531 14.476562 Z M 7.824219 9.484375 C 6.664062 7.019531 8.601562 4.132812 10.957031 3.324219 C 12.035156 2.957031 12.503906 2.824219 14.199219 2.964844 C 14.199219 3.605469 14.199219 4.246094 14.199219 4.882812 C 13.402344 4.359375 12.285156 4.128906 11.015625 4.664062 C 9.867188 5.144531 9.476562 6.058594 9.355469 6.6875 C 9.097656 8.039062 10.007812 9.507812 11.28125 9.238281 C 10.378906 8.226562 10.695312 7.425781 11.050781 7.023438 C 11.816406 6.171875 12.554688 6.121094 13.277344 6.921875 C 14.121094 7.855469 14.109375 9.28125 13.253906 10.363281 C 12.429688 11.402344 10.84375 11.859375 9.617188 11.386719 C 8.6875 11.023438 8.226562 10.34375 7.820312 9.480469 Z M 6.304688 23.703125 C 5.019531 22.734375 4.519531 21.242188 4.417969 19.433594 C 4.285156 17.015625 6.660156 14.050781 9.191406 14.28125 C 10.078125 14.363281 10.816406 14.75 11.382812 15.480469 C 12.125 16.445312 12.121094 18.054688 11.386719 19.160156 C 10.625 20.3125 9.335938 20.804688 8.273438 20.34375 C 7.363281 19.949219 7.070312 18.71875 7.644531 17.730469 C 7.917969 17.269531 8.332031 17.042969 8.714844 17.148438 C 9.097656 17.253906 9.351562 17.65625 9.355469 18.171875 C 9.355469 18.222656 9.355469 18.273438 9.351562 18.433594 C 9.632812 17.988281 9.738281 17.605469 9.710938 17.195312 C 9.609375 15.640625 8.355469 15.101562 7.160156 15.722656 C 6.101562 16.265625 5.640625 17.277344 5.5 18.496094 C 5.285156 20.332031 5.996094 21.644531 7.457031 22.332031 C 9.390625 23.242188 11.148438 22.082031 12.097656 20.886719 C 13.679688 18.902344 13.726562 15.445312 11.496094 13.601562 C 11.113281 13.28125 10.675781 13.042969 10.207031 12.867188 C 11.675781 13.011719 13.132812 12.550781 14.195312 11.707031 C 14.195312 15.835938 14.195312 19.964844 14.203125 24.09375 C 13.652344 24.519531 13.039062 24.808594 12.359375 24.964844 C 10.136719 25.484375 8.089844 25.046875 6.304688 23.703125 Z M 17.792969 2.984375 C 17.789062 2.5625 17.941406 2.421875 18.332031 2.382812 C 19.5625 2.257812 20.476562 2.785156 21.171875 3.746094 C 22.285156 5.289062 22.324219 7.710938 21.292969 9.316406 C 20.492188 10.550781 19.304688 11 17.800781 11.011719 L 17.800781 7.851562 C 17.800781 6.230469 17.816406 4.609375 17.792969 2.988281 Z M 25.03125 20.507812 C 24.800781 22.65625 23.960938 24.480469 22.214844 25.800781 C 20.933594 26.769531 19.492188 27.152344 17.832031 26.855469 L 17.832031 12.789062 C 18.90625 12.535156 19.945312 12.628906 20.949219 13.082031 C 23.675781 14.3125 25.363281 17.394531 25.03125 20.507812 Z M 25.03125 20.507812 " fill-opacity="1" fill-rule="nonzero"/></g></svg>