<?xml version="1.0" encoding="UTF-8"?>
<svg id="w_full_stacked" data-name="w full stacked" xmlns="http://www.w3.org/2000/svg" viewBox="0 0 254.28 157.21">
  <defs>
    <style>
      .cls-1 {
        fill: #fff;
      }
    </style>
  </defs>
  <path class="cls-1" d="M57.94,101.42c-3.47-2.09-5.99-4.97-7.53-8.64-.85-2.04-1.43-4.19-2.19-6.26-.4-1.09-.89-2.16-1.45-3.19-.18-.33-.69-.66-1.07-.67-2.11-.06-4.22-.03-6.58-.03,2.45,5.6,4.87,11.11,7.3,16.68-.88.33-1.62.66-2.39.89-3.62,1.04-6.31,3.31-7.97,6.6-2.78,5.53-3.26,11.38-1.46,17.29,1.3,4.25,4.37,6.83,8.45,8.61,5.45,2.36,13.96-1.53,15.25-8.51.45-2.44.1-4.75-1.18-6.87-1.68-2.79-5.38-4.11-8.44-3.07-3.19,1.08-5.25,4.13-4.95,7.36.25,2.77,2.86,4.58,5.55,3.85,1.26-.34,2.08-1.27,2.11-2.38.03-1.11-.71-2.12-1.9-2.57-.11-.04-.23-.08-.6-.2,1.22-.38,2.17-.34,3.1.07,3.49,1.56,3.83,5.37,1.55,8.07-2.01,2.38-4.67,2.77-7.57,2.14-4.37-.95-6.87-3.95-7.39-8.44-.7-5.94,3.23-9.68,6.66-11.24,5.69-2.59,13.66.17,16.3,7.68,2.19,6.24.05,12.73-5.41,16.44-4.77,3.24-10.03,4.18-15.65,2.89-9-2.08-14.65-9.47-15.53-17.75-.55-5.21.04-10.22,2.63-14.86,2.1-3.77,5.12-6.63,9.05-8.7-2.46-5.91-4.92-11.8-7.43-17.81h28.84c-3.63,7.51-2.97,14.99-.1,22.63Z"/>
  <path class="cls-1" d="M233.56,132.58h-14.99c1.35-1.01,2.5-1.82,3.59-2.71.3-.25.57-.73.57-1.11.03-7.59.02-15.18.02-22.78,0-.22-.05-.43-.08-.73-3.86.42-6.94-1.77-10.41-2.98-.03.4-.07.68-.08.95,0,8.44,0,16.88-.02,25.32,0,.66.2,1.09.73,1.47,1.09.76,2.13,1.58,3.41,2.53h-15.12c1.2-.9,2.2-1.71,3.26-2.43.64-.43.86-.91.86-1.69-.03-9.32-.04-18.64-.04-27.96,0-5.9,0-11.79.04-17.69,0-.74-.21-1.2-.81-1.61-1.06-.73-2.07-1.54-3.31-2.46h15.08c-1.2.91-2.19,1.72-3.25,2.43-.63.43-.87.92-.86,1.69.04,3.97.04,7.95,0,11.93,0,.79.19,1.02,1.02,1.22,2.17.53,4.29,1.28,6.41,1.99,1.01.34,1.97.81,3.11,1.29.02-.51.05-.85.05-1.19,0-5.12-.01-10.23.02-15.35,0-.7-.22-1.14-.78-1.53-1.07-.74-2.09-1.54-3.33-2.47h15.14c-1.18.87-2.22,1.68-3.3,2.4-.63.42-.89.89-.89,1.68.03,15.21.02,30.43,0,45.64,0,.73.19,1.2.81,1.61,1.11.73,2.16,1.55,3.23,2.33-.03.06-.05.13-.08.19Z"/>
  <path class="cls-1" d="M145.85,95.54c2.99-4.88,5.98-9.75,9.02-14.72-.87-.67-1.71-1.31-2.74-2.1h15.09c-.48.37-.73.57-.99.77-1.29.94-2.59,1.87-3.86,2.84-.35.27-.68.62-.91.99-3.14,5.1-6.26,10.22-9.39,15.33-.27.44-.41.79-.12,1.33,2.78,5.19,5.52,10.41,8.28,15.61,2.24,4.23,4.46,8.47,6.75,12.68.35.65.98,1.19,1.57,1.67,1.06.85,2.18,1.62,3.5,2.59h-15.16c.86-.66,1.54-1.27,2.31-1.75.73-.46.81-.86.4-1.64-3.97-7.44-7.9-14.9-11.84-22.36-.06-.11-.14-.22-.31-.5-.7,1.39-1.86,2.35-1.84,4.02.05,6.06.04,12.12,0,18.18,0,.75.25,1.2.83,1.6,1.06.73,2.08,1.53,3.33,2.47h-15.11c.76-.58,1.33-1.15,2-1.51,1.73-.91,2.2-2.23,2.16-4.19-.12-5.99.04-11.99.03-17.99,0-8.8-.05-17.59-.12-26.39,0-.4-.32-.9-.65-1.17-1.04-.86-2.16-1.64-3.46-2.6h15.11c-1.05.79-1.86,1.52-2.78,2.06-1.05.62-1.39,1.4-1.36,2.62.08,3.71.03,7.43.03,11.14,0,.32,0,.63,0,.95.08.02.16.04.24.07Z"/>
  <path class="cls-1" d="M91.38,99.96c2.58,1.35,4.74,3.02,6.33,5.3,3.85,5.5,4.57,11.41,1.69,17.47-2.95,6.2-8.08,9.55-14.95,9.84-4.88.21-9.77.05-14.66.05-.09,0-.17-.05-.48-.13,1.11-.84,2.07-1.64,3.1-2.32.71-.47.95-1,.95-1.85-.03-15.12-.03-30.24,0-45.37,0-.82-.17-1.39-.9-1.87-1.05-.68-2.01-1.49-3-2.24.03-.08.05-.16.08-.24.34,0,.68,0,1.02,0,3.97.03,7.95.16,11.92.06,3.46-.09,6.41.97,8.9,3.31,5,4.7,5.21,12.37.53,17.39-.15.16-.29.34-.52.59ZM80.33,128.91c3.18.56,5.95-.16,8.4-2.01,3.35-2.53,4.96-6.01,5.4-10.11.64-5.94-2.6-11.83-7.83-14.18-1.93-.87-3.91-1.04-5.98-.56v26.87ZM80.27,98.65c2.88-.02,5.16-.88,6.69-3.24,1.99-3.06,1.9-7.68-.23-10.63-1.33-1.84-3.09-2.84-5.44-2.61-.76.08-1.05.35-1.04,1.15.05,3.1.02,6.19.02,9.29v6.04Z"/>
  <path class="cls-1" d="M130.51,105.57c0,4.76.03,9.51,0,14.27-.05,6.58-4.73,11.92-11.03,12.66-7.44.87-13.71-4.33-14.27-11.83-.03-.39-.05-.78-.05-1.17,0-9.25-.02-18.51,0-27.76.02-6.02,3.51-10.89,8.9-12.55,8.25-2.53,16.36,3.48,16.44,12.21.04,4.72,0,9.45,0,14.17ZM123.6,105.66c0-3.75,0-7.5,0-11.24,0-2.22.03-4.43-.02-6.65-.05-2.28-1.13-4.01-3.16-5.02-2.03-1.01-4.06-.86-5.92.45-1.76,1.25-2.43,3.03-2.43,5.17.02,11.5,0,23.01.01,34.51,0,.36.03.72.06,1.07.21,2.43,2,4.48,4.39,5.01,3.72.83,7.03-1.87,7.05-5.8.03-5.83,0-11.67,0-17.5Z"/>
  <path class="cls-1" d="M233.24,68.5h-13.56c.89-.67,1.51-1.26,2.25-1.66,1.19-.66,1.55-1.54,1.54-2.91-.08-8.21-.03-16.43-.04-24.64-.01-5.19-3.47-9.94-8.4-11.57-.27-.09-.55-.14-.97-.25v1.16c0,12.03,0,24.05-.02,36.08,0,.77.22,1.26.87,1.69.91.6,1.76,1.3,2.81,2.1h-13.44c1.11-.83,2.02-1.54,2.97-2.2.5-.35.72-.73.72-1.37-.02-13.46,0-26.92-.04-40.38,0-.43-.32-.96-.65-1.25-.85-.75-1.79-1.39-2.68-2.33.48,0,.96-.02,1.44,0,2.66.12,5.34.12,7.97.43,3.67.43,6.72,2.23,9.42,4.81,0-.59.06-1.2-.02-1.78-.05-.36-.26-.79-.53-1.02-.93-.76-1.92-1.44-3.11-2.32h13.32c-1.03.78-1.88,1.46-2.78,2.08-.56.39-.81.81-.81,1.52.02,13.4.02,26.79,0,40.19,0,.67.22,1.08.75,1.45.94.65,1.84,1.35,3,2.21Z"/>
  <path class="cls-1" d="M117.44,20.98c2.11,0,4.21,0,6.32,0,.81,0,1.63.13,2.44.06,6.63-.59,14.98,5.83,13.72,15.6-.46,3.58-2.16,6.52-4.93,8.83-.39.33-.46.6-.27,1.07,2.44,6.11,4.85,12.22,7.28,18.33.15.37.43.72.74.99.98.84,2,1.63,3.22,2.61h-13.49c.98-.68,1.78-1.26,2.61-1.78.44-.28.51-.55.31-1.04-2.18-5.47-4.37-10.94-6.49-16.44-.37-.95-1.02-.65-1.58-.55-.22.04-.48.61-.48.93-.03,5.12-.04,10.23,0,15.35,0,.43.32.97.66,1.25.91.77,1.91,1.43,3.08,2.28h-13.5c1.08-.82,1.98-1.57,2.96-2.22.54-.36.68-.78.68-1.38-.02-5.35,0-10.69,0-16.04,0-8.04-.01-16.09.01-24.13,0-.74-.22-1.2-.83-1.6-.89-.59-1.71-1.26-2.57-1.9.03-.07.06-.14.09-.21ZM126.92,24.07v19.53c1.39-.12,2.64-.65,3.6-1.51,4.23-3.75,4.76-11.11,1.1-15.42-1.22-1.43-2.7-2.4-4.71-2.6Z"/>
  <path class="cls-1" d="M47.39,39.54c1.53,1.28,3.2,2.37,4.46,3.8,4.09,4.65,5.05,10.06,2.72,15.76-2.33,5.7-6.82,8.94-12.99,9.33-4.48.28-8.99.09-13.48.11-.06,0-.11-.05-.34-.16.96-.72,1.81-1.43,2.74-2.03.67-.43.83-.95.83-1.7-.02-13.26-.02-26.52,0-39.79,0-.86-.27-1.38-.96-1.84-.85-.57-1.65-1.22-2.4-2.03.34-.02.68-.05,1.01-.05,3.42.04,6.84.2,10.25.08,2.72-.1,5.07.61,7.18,2.24,5,3.86,5.61,11.17,1.34,15.84-.17.18-.33.38-.37.44ZM37.37,53.45c0,3.61.02,7.23-.02,10.84,0,.78.27,1.03.98,1.08,2.12.16,4.08-.3,5.86-1.45,5.44-3.52,7.2-11.45,3.69-17.16-2.16-3.52-5.16-5.71-9.58-5.32-.79.07-.95.35-.95,1.07.03,3.65.01,7.29.01,10.94ZM37.32,38.09c2.92.4,4.62-.3,5.99-2.37,1.86-2.81,1.63-7.22-.55-9.79-1.17-1.37-2.64-2.06-4.49-1.84-.69.08-.91.38-.91,1.08.02,3.45-.02,6.9-.04,10.35,0,.87,0,1.74,0,2.58Z"/>
  <path class="cls-1" d="M166.33,39.65c1.09.77,2.16,1.4,3.09,2.2,4.78,4.08,6.56,10.37,4.66,16.19-1.93,5.89-7.06,10.05-13.34,10.4-4.48.25-8.99.09-13.48.11-.08,0-.16-.06-.42-.17,1.01-.76,1.92-1.47,2.86-2.13.51-.35.7-.75.7-1.37-.02-13.42-.02-26.85,0-40.27,0-.69-.26-1.08-.78-1.44-.89-.63-1.74-1.3-2.54-2.17.34-.02.67-.05,1.01-.05,3.45.04,6.9.2,10.34.08,2.61-.09,4.88.6,6.93,2.13,5.16,3.85,5.8,11.34,1.38,16.03-.13.14-.26.29-.42.47ZM156.45,53.28c0,3.68.03,7.36-.02,11.04-.01.79.28,1.01.98,1.06,2.15.15,4.17-.28,5.94-1.52,4.41-3.09,5.92-7.47,5.19-12.63-.84-5.94-5.5-10.01-11.08-9.95-.82,0-1.04.27-1.03,1.07.04,3.65.02,7.29.02,10.94ZM156.44,38.07c2.03.42,4.25-.22,5.41-1.5,2.51-2.79,2.31-8.44-.41-11.04-1.14-1.09-2.48-1.63-4.09-1.44-.67.08-.94.33-.93,1.05.04,2.9.01,5.79.01,8.69,0,1.42,0,2.85,0,4.24Z"/>
  <path class="cls-1" d="M196.03,99.25c-.16.5-.21,1.08-.5,1.49-.74,1.06-1.52,2.12-2.41,3.06-1.67,1.75-3.75,1.83-5.88,1.07-1.39-.5-2.72-1.18-4.15-1.82v26.01c2.82.18,5.27-.53,7.31-2.45,2.01-1.88,3.45-4.14,4.45-6.69.29-.75.59-1.5,1.11-2.25.09.39.24.77.25,1.16.07,3.32.12,6.64.17,9.96.02,1.01.02,2.02.07,3.02.02.51-.17.73-.67.69-.06,0-.13,0-.2,0-7.49.04-14.98.08-22.47.12-.22,0-.43-.02-.97-.06.54-.47.84-.85,1.23-1.04,2.34-1.13,2.9-2.94,2.84-5.51-.2-8.27-.09-16.55-.1-24.82,0-6.16,0-12.31.04-18.47,0-.69-.2-1.15-.77-1.54-1.04-.71-2.02-1.5-2.98-2.48.26-.03.52-.08.77-.08,6.97,0,13.94,0,20.91-.02.75,0,1.01.18.99.98-.11,4.2-.15,8.4-.23,12.6,0,.41-.13.82-.2,1.23-.09.02-.18.04-.26.06-.29-.72-.6-1.43-.87-2.16-.99-2.6-2.43-4.9-4.48-6.78-1.45-1.33-3.09-2.28-5.12-2.39-.25-.01-.51,0-.85,0-.02.39-.05.71-.05,1.03,0,3.97,0,7.95-.01,11.92,0,.6.16.9.76,1.14,1.65.67,3.3,1.39,4.88,2.22,2.3,1.21,4.59,2.06,7.13.6.08.06.17.13.25.19Z"/>
  <path class="cls-1" d="M85.23,20.99h13.07c.04.06.07.12.11.18-.81.6-1.6,1.25-2.44,1.8-.72.47-1,1.01-1,1.91.04,9.12.02,18.25.03,27.37,0,2.77.06,5.54.08,8.3.02,2.57,1.83,4.54,4.44,4.83,2.52.28,4.95-1.44,5.45-3.88.11-.54.15-1.1.15-1.65,0-11.73,0-23.46.02-35.19,0-.71-.24-1.14-.8-1.53-.9-.62-1.75-1.3-2.81-2.09h12.85c.03.07.06.15.09.22-.86.65-1.69,1.33-2.58,1.92-.56.37-.72.81-.71,1.46.02,10.85.02,21.7,0,32.55,0,5.86-4,10.43-9.78,11.22-6.03.83-11.79-3.7-12.42-9.77-.07-.68-.08-1.37-.08-2.05,0-10.59-.01-21.18.01-31.77,0-.8-.22-1.33-.9-1.77-.89-.57-1.71-1.26-2.78-2.07Z"/>
  <path class="cls-1" d="M200.72,44.81c0,4.11.03,8.21,0,12.32-.05,5.98-3.99,10.5-9.82,11.29-5.79.79-11.36-3.34-12.3-9.13-.13-.83-.21-1.69-.21-2.53-.02-8.05-.02-16.1,0-24.15.02-6.33,4.26-11.13,10.24-11.63,6.62-.56,12.03,4.48,12.09,11.31.04,4.17,0,8.34,0,12.52ZM194.58,44.76c0-5.25,0-10.49,0-15.74,0-2.04-.96-3.49-2.71-4.41-1.69-.89-3.41-.79-5.02.23-1.7,1.07-2.35,2.69-2.35,4.65.01,10.17,0,20.33,0,30.5,0,.29.02.59.05.88.28,2.74,2.52,4.65,5.29,4.53,2.68-.12,4.72-2.28,4.73-5,0-5.21,0-10.43,0-15.64Z"/>
  <path class="cls-1" d="M59.36,44.71c0-4.24-.07-8.48.02-12.71.09-4.53,2.19-7.98,6.28-9.93,4.11-1.96,8.15-1.5,11.77,1.3,2.9,2.24,4.22,5.33,4.24,8.95.03,8.25.07,16.49,0,24.74-.07,8.02-7.37,13.33-14.78,10.86-4.49-1.5-7.49-5.68-7.52-10.59-.03-4.2,0-8.41,0-12.61ZM75.57,44.73c0-4.99,0-9.97,0-14.96,0-.52-.01-1.05-.1-1.56-.54-3.42-4.48-5.26-7.46-3.5-1.88,1.11-2.59,2.79-2.58,4.91.02,10.04.01,20.08.01,30.11,0,.36.02.72.04,1.07.09,1.49.77,2.69,1.95,3.57,1.63,1.21,3.43,1.4,5.26.53,1.96-.93,2.87-2.58,2.87-4.73,0-5.15,0-10.3,0-15.45Z"/>
</svg>